<svg width="203" height="40" viewBox="0 0 203 40" fill="none" xmlns="http://www.w3.org/2000/svg">
<g clip-path="url(#clip0_22_367)" filter="url(#filter0_d_22_367)">
<path fill-rule="evenodd" clip-rule="evenodd" d="M4.48169 0.90175L7.41386 4.20848V28.4106L5.24066 31.5774L18.5501 31.5978L16.1512 28.6839L15.9021 19.9679L28.7353 20.0375C32.6251 18.7425 36.6238 15.9815 36.8159 10.3996C36.7545 4.99032 33.452 1.52086 29.6177 0.830605L4.48169 0.90175ZM15.4265 2.44953V17.9977L25.2728 18.0689C27.5131 16.2623 29.2115 14.8787 29.1436 10.5411C29.1115 7.00433 28.3649 3.92011 25.0689 2.45029L15.4265 2.44953ZM42.9753 0.725402L45.9075 4.03289V28.2351L43.7343 31.4033L57.043 31.4222L54.6441 28.5083L54.395 19.7923H54.4483L68.1982 31.5206L79.6091 31.4275L69.1946 22.4193H60.5004L57.436 19.8089L67.2282 19.8619C71.118 18.5669 75.1159 15.8059 75.3088 10.224C75.2482 4.81548 71.9456 1.34527 68.1106 0.65577L42.9753 0.725402ZM53.9194 2.27318V17.8214L63.7657 17.8925C66.0068 16.0859 67.7044 14.7024 67.6365 10.364C67.6044 6.82798 66.8578 3.74301 63.5619 2.27318H53.9194ZM90.5949 0.690586H102.071L117.009 28.4106C117.656 30.551 119.589 30.2869 120.88 31.2254H106.416L108.59 30.5457L108.454 28.4818L104.719 22.5011L92.0208 22.5722L89.3049 28.3418C89.2143 28.998 88.5123 29.496 89.0331 30.3111L90.0522 31.2958L83.805 31.155L86.5217 30.3111L96.7741 8.71181V7.23365L92.4423 1.45502L90.5949 0.690586ZM92.8236 20.5976L98.0977 10.6123L103.589 20.5416L92.8236 20.5976ZM168.197 0.751135H179.672L194.611 28.4712C195.257 30.6116 197.191 30.3475 198.482 31.286H184.017L186.191 30.6048L186.055 28.5408L182.32 22.5616L169.622 22.6328L166.906 28.4008C166.815 29.0585 166.114 29.5565 166.634 30.3717L167.653 31.3563L161.407 31.2156L164.123 30.3717L174.376 8.77235V7.29345L170.044 1.51557L168.197 0.751135ZM170.425 20.6589L175.699 10.6736L181.191 20.6013L170.425 20.6589ZM124.849 0.402222L145.292 0.514994C151.875 2.05672 156.064 6.07868 157.363 13.0948L157.308 18.5669C156.108 24.8186 152.175 29.1319 145.238 31.3155L124.74 31.373L124.737 30.7107C127.853 30.4754 128.102 30.1196 128.11 28.2699V3.33506C128.075 1.96741 127.802 1.11594 124.794 1.02209L124.849 0.402222ZM136.469 2.53581L136.45 29.5134C139.146 29.5225 141.485 29.7753 142.806 29.1009C145.801 27.7333 147.191 25.633 147.319 23.6598L147.247 7.73016C147.248 5.1818 144.482 3.38274 142.885 2.91425C141.743 2.49116 139.465 2.47375 136.469 2.53581Z" fill="white" stroke="white" stroke-width="1.02419" stroke-miterlimit="2.613"/>
</g>
<defs>
<filter id="filter0_d_22_367" x="0.481689" y="0" width="202" height="40" filterUnits="userSpaceOnUse" color-interpolation-filters="sRGB">
<feFlood flood-opacity="0" result="BackgroundImageFix"/>
<feColorMatrix in="SourceAlpha" type="matrix" values="0 0 0 0 0 0 0 0 0 0 0 0 0 0 0 0 0 0 127 0" result="hardAlpha"/>
<feOffset dy="4"/>
<feGaussianBlur stdDeviation="2"/>
<feComposite in2="hardAlpha" operator="out"/>
<feColorMatrix type="matrix" values="0 0 0 0 0 0 0 0 0 0 0 0 0 0 0 0 0 0 0.25 0"/>
<feBlend mode="normal" in2="BackgroundImageFix" result="effect1_dropShadow_22_367"/>
<feBlend mode="normal" in="SourceGraphic" in2="effect1_dropShadow_22_367" result="shape"/>
</filter>
<clipPath id="clip0_22_367">
<rect width="194" height="32" fill="white" transform="translate(4.48169)"/>
</clipPath>
</defs>
</svg>
